<?xml version="1.0" encoding="UTF-8"?>
<svg id="Livello_2" data-name="Livello 2" xmlns="http://www.w3.org/2000/svg" xmlns:xlink="http://www.w3.org/1999/xlink" viewBox="0 0 15.66 15.66">
  <defs>
    <style>
      .cls-1 {
        fill: url(#Sfumatura_senza_nome_239);
      }

      .cls-1, .cls-2 {
        stroke-width: 0px;
      }

      .cls-2 {
        fill: #fff;
      }
    </style>
    <linearGradient id="Sfumatura_senza_nome_239" data-name="Sfumatura senza nome 239" x1="0" y1="7.83" x2="15.66" y2="7.83" gradientUnits="userSpaceOnUse">
      <stop offset="0" stop-color="#fdc627"/>
      <stop offset=".17" stop-color="#fbbe24"/>
      <stop offset=".43" stop-color="#f8aa1d"/>
      <stop offset=".74" stop-color="#f28a12"/>
      <stop offset="1" stop-color="#ec6907"/>
    </linearGradient>
  </defs>
  <g id="Livello_1-2" data-name="Livello 1">
    <g>
      <circle class="cls-1" cx="7.83" cy="7.83" r="7.83"/>
      <g id="sf4zei.tif">
        <g>
          <path class="cls-2" d="M11.95,9.44c-.65,1.92-2.6,2.36-4.12,1.98,0-.02,0-.05,0-.06.69-.49.93-1.19.97-2,.02-.35.12-.73.29-1.04.34-.62,1.03-.83,1.77-.59-.05.78-.35,1.47-.73,2.15.59-.49.99-1.12,1.37-1.91.17.34.31.61.45.88,0,.19,0,.39,0,.58Z"/>
          <path class="cls-2" d="M7.44,3.7c1.25.24,2.07,1.02,2.63,2.12.05.1.09.21.14.32-.03.01-.06.03-.07.03-.77-.29-1.47-.12-2.14.32-.45.3-.93.48-1.49.31-.46-.14-.77-.44-.97-.88-.08-.18-.03-.29.14-.34.57-.18,1.14-.36,1.71-.53.1-.03.21-.04.31-.08-.76-.22-1.52-.15-2.32.05.14-.59.43-.99.96-1.2.11-.04.21-.08.32-.13h.77Z"/>
          <path class="cls-2" d="M4.71,6.97c.1.91.58,1.46,1.29,1.85.43.23.81.53.97,1.03.19.59.06,1.14-.42,1.61-.67-.41-1.19-.97-1.67-1.6.07.82.48,1.45,1.1,1.97-.48.26-1.14.13-1.56-.34-.52-.57-.74-1.27-.71-2.04.03-.91.4-1.69,1.01-2.47Z"/>
        </g>
      </g>
    </g>
  </g>
</svg>