<?xml version="1.0" encoding="UTF-8"?>
<svg id="Livello_2" data-name="Livello 2" xmlns="http://www.w3.org/2000/svg" viewBox="0 0 5.74 3.77">
  <defs>
    <style>
      .cls-1 {
        fill: #fff;
        stroke-width: 0px;
      }
    </style>
  </defs>
  <g id="Livello_1-2" data-name="Livello 1">
    <path class="cls-1" d="M5.42.79c-.26-.64-.99-.96-1.63-.7-.09.04-.18.08-.26.14-.2.14-.43.22-.66.22-.12,0-.24-.02-.35-.06-.11-.04-.22-.09-.32-.16-.08-.05-.16-.1-.26-.14C1.31-.17.58.15.32.79.06,1.44-.33,3.4.5,3.73c.45.18.98-.25,1.41-.78.15-.19.39-.3.64-.3h.65c.25,0,.48.11.64.3.43.53.95.96,1.41.78.83-.33.44-2.3.18-2.94h0ZM1.94,1.57h-.34v.34c0,.1-.08.17-.17.17s-.17-.08-.17-.17v-.34h-.34c-.1,0-.17-.08-.17-.17s.08-.17.17-.17h.34v-.34c0-.1.08-.17.17-.17s.17.08.17.17v.34h.34c.1,0,.17.08.17.17s-.08.17-.17.17h0ZM4.24.65c.14,0,.25.11.25.25s-.11.25-.25.25-.25-.11-.25-.25.11-.25.25-.25ZM3.75,1.65c-.14,0-.25-.11-.25-.25s.11-.25.25-.25.25.11.25.25-.11.25-.25.25ZM4.24,2.14c-.14,0-.25-.11-.25-.25s.11-.25.25-.25.25.11.25.25-.11.25-.25.25ZM4.74,1.65c-.14,0-.25-.11-.25-.25s.11-.25.25-.25.25.11.25.25-.11.25-.25.25h0Z"/>
  </g>
</svg>