<?xml version="1.0" encoding="UTF-8"?>
<svg xmlns="http://www.w3.org/2000/svg" viewBox="0 0 464.01 378.37">
  <defs>
    <style>
      .cls-1 {
        fill: #fcdf8f;
      }

      .cls-1, .cls-2, .cls-3, .cls-4, .cls-5, .cls-6, .cls-7, .cls-8, .cls-9, .cls-10, .cls-11, .cls-12, .cls-13, .cls-14, .cls-15, .cls-16, .cls-17 {
        stroke-width: 0px;
      }

      .cls-2, .cls-12 {
        fill: #f0883b;
      }

      .cls-3, .cls-9 {
        opacity: .4;
      }

      .cls-3, .cls-9, .cls-12 {
        mix-blend-mode: multiply;
      }

      .cls-3, .cls-15 {
        fill: #fdc627;
      }

      .cls-4 {
        fill: #f9c227;
      }

      .cls-5 {
        fill: #1d1d1b;
      }

      .cls-6 {
        fill: #ffada8;
      }

      .cls-7 {
        fill: #f4a86f;
      }

      .cls-8 {
        fill: #e2e2e2;
      }

      .cls-9, .cls-17 {
        fill: #f8caa8;
      }

      .cls-10 {
        fill: #f1934c;
      }

      .cls-11 {
        fill: #ec6907;
      }

      .cls-18 {
        isolation: isolate;
      }

      .cls-12 {
        opacity: .3;
      }

      .cls-13 {
        fill: #face50;
      }

      .cls-14 {
        fill: #ffcbc7;
      }

      .cls-16 {
        fill: #fff;
      }
    </style>
  </defs>
  <g class="cls-18">
    <g id="Livello_2" data-name="Livello 2">
      <g id="Livello_1-2" data-name="Livello 1">
        <circle class="cls-8" cx="239.01" cy="214.93" r="163.44"/>
        <g>
          <path class="cls-8" d="M196.78,89.52h-33.64c-1.55,0-2.81-1.26-2.81-2.81h0c0-1.55-1.26-2.81-2.81-2.81H31.38c-3.09,0-5.6,2.51-5.6,5.6h0c0,3.09,2.51,5.6,5.6,5.6h34.15c1.27,0,2.31,1.03,2.31,2.31h0c0,1.27-1.03,2.31-2.31,2.31H22.06c-3.09,0-5.6,2.51-5.6,5.6h0c0,3.09,2.51,5.6,5.6,5.6h62.96c2.81,0,5.09-2.28,5.09-5.09h0c0-2.81,2.28-5.09,5.09-5.09h101.57c3.09,0,5.6-2.51,5.6-5.6h0c0-3.09-2.51-5.6-5.6-5.6Z"/>
          <path class="cls-8" d="M287.1,29.13h0c0-1.82-1.48-3.3-3.3-3.3h-64.76c-3.09,0-5.6,2.51-5.6,5.6h0c0,3.09,2.51,5.6,5.6,5.6h12.33c1.82,0,3.3,1.48,3.3,3.3h0c0,1.82,1.48,3.3,3.3,3.3h64.76c3.09,0,5.6-2.51,5.6-5.6h0c0-3.09-2.51-5.6-5.6-5.6h-12.33c-1.82,0-3.3-1.48-3.3-3.3Z"/>
          <path class="cls-8" d="M54.99,275.5h0c0-1.82,1.48-3.3,3.3-3.3h64.76c3.09,0,5.6,2.51,5.6,5.6h0c0,3.09-2.51,5.6-5.6,5.6h-12.33c-1.82,0-3.3,1.48-3.3,3.3h0c0,1.82-1.48,3.3-3.3,3.3H39.36c-3.09,0-5.6-2.51-5.6-5.6h0c0-3.09,2.51-5.6,5.6-5.6h12.33c1.82,0,3.3-1.48,3.3-3.3Z"/>
          <path class="cls-8" d="M339.32,325.82h0c0,1.82,1.48,3.3,3.3,3.3h64.76c3.09,0,5.6-2.51,5.6-5.6h0c0-3.09-2.51-5.6-5.6-5.6h-12.33c-1.82,0-3.3-1.48-3.3-3.3h0c0-1.82-1.48-3.3-3.3-3.3h-64.76c-3.09,0-5.6,2.51-5.6,5.6h0c0,3.09,2.51,5.6,5.6,5.6h12.33c1.82,0,3.3,1.48,3.3,3.3Z"/>
          <path class="cls-8" d="M427.14,288.09h0c0-2.22-1.8-4.02-4.02-4.02h-13.91c-1.82,0-3.3-1.48-3.3-3.3h0c0-1.82-1.48-3.3-3.3-3.3h-64.76c-3.09,0-5.6,2.51-5.6,5.6h0c0,3.09,2.51,5.6,5.6,5.6h13.91c.95,0,1.72.77,1.72,1.72h0c0,.95-.77,1.72-1.72,1.72h-4.71c-3.09,0-5.6,2.51-5.6,5.6h0c0,3.09,2.51,5.6,5.6,5.6h111.36c3.09,0,5.6-2.51,5.6-5.6h0c0-3.09-2.51-5.6-5.6-5.6h-27.26c-2.22,0-4.02-1.8-4.02-4.02Z"/>
          <path class="cls-8" d="M152.61,57.48h0c0-2.22-1.8-4.02-4.02-4.02h-13.91c-1.82,0-3.3-1.48-3.3-3.3h0c0-1.82-1.48-3.3-3.3-3.3H63.33c-3.09,0-5.6,2.51-5.6,5.6h0c0,3.09,2.51,5.6,5.6,5.6h13.91c.95,0,1.72.77,1.72,1.72h0c0,.95-.77,1.72-1.72,1.72h-4.71c-3.09,0-5.6,2.51-5.6,5.6h0c0,3.09,2.51,5.6,5.6,5.6h111.36c3.09,0,5.6-2.51,5.6-5.6h0c0-3.09-2.51-5.6-5.6-5.6h-27.26c-2.22,0-4.02-1.8-4.02-4.02Z"/>
          <path class="cls-8" d="M380.59,10.62h0c0-2.22-1.8-4.02-4.02-4.02h-13.91c-1.82,0-3.3-1.48-3.3-3.3h0c0-1.82-1.48-3.3-3.3-3.3h-64.76c-3.09,0-5.6,2.51-5.6,5.6h0c0,3.09,2.51,5.6,5.6,5.6h13.91c.95,0,1.72.77,1.72,1.72h0c0,.95-.77,1.72-1.72,1.72h-4.71c-3.09,0-5.6,2.51-5.6,5.6h0c0,3.09,2.51,5.6,5.6,5.6h111.36c3.09,0,5.6-2.51,5.6-5.6h0c0-3.09-2.51-5.6-5.6-5.6h-27.26c-2.22,0-4.02-1.8-4.02-4.02Z"/>
          <path class="cls-8" d="M68.06,262.38H5.6c-3.09,0-5.6-2.51-5.6-5.6h0c0-3.09,2.51-5.6,5.6-5.6h62.46c3.09,0,5.6,2.51,5.6,5.6h0c0,3.09-2.51,5.6-5.6,5.6Z"/>
          <path class="cls-8" d="M96.41,244.34h-28.43c-3.09,0-5.6-2.51-5.6-5.6h0c0-3.09,2.51-5.6,5.6-5.6h28.43c3.09,0,5.6,2.51,5.6,5.6h0c0,3.09-2.51,5.6-5.6,5.6Z"/>
          <path class="cls-8" d="M116.22,314.55h-28.43c-3.09,0-5.6-2.51-5.6-5.6h0c0-3.09,2.51-5.6,5.6-5.6h28.43c3.09,0,5.6,2.51,5.6,5.6h0c0,3.09-2.51,5.6-5.6,5.6Z"/>
          <path class="cls-8" d="M407.38,348.63h-28.43c-3.09,0-5.6-2.51-5.6-5.6h0c0-3.09,2.51-5.6,5.6-5.6h28.43c3.09,0,5.6,2.51,5.6,5.6h0c0,3.09-2.51,5.6-5.6,5.6Z"/>
          <path class="cls-8" d="M81,25.83h-28.43c-3.09,0-5.6-2.51-5.6-5.6h0c0-3.09,2.51-5.6,5.6-5.6h28.43c3.09,0,5.6,2.51,5.6,5.6h0c0,3.09-2.51,5.6-5.6,5.6Z"/>
          <path class="cls-8" d="M449.33,148.97h-62.46c-3.09,0-5.6-2.51-5.6-5.6h0c0-3.09,2.51-5.6,5.6-5.6h62.46c3.09,0,5.6,2.51,5.6,5.6h0c0,3.09-2.51,5.6-5.6,5.6Z"/>
          <path class="cls-8" d="M422.14,102.02h0c0-2.66,2.16-4.82,4.82-4.82h14.7c3.09,0,5.6-2.51,5.6-5.6h0c0-3.09-2.51-5.6-5.6-5.6h-63.23c-2.66,0-4.82,2.16-4.82,4.82h0c0,2.66-2.16,4.82-4.82,4.82h-44.34c-3.09,0-5.6,2.51-5.6,5.6h0c0,3.09,2.51,5.6,5.6,5.6h2.09c1.73,0,3.14,1.41,3.14,3.14h0c0,1.73-1.41,3.14-3.14,3.14h-15.09c-3.09,0-5.6,2.51-5.6,5.6h0c0,3.09,2.51,5.6,5.6,5.6h130.22c3.09,0,5.6-2.51,5.6-5.6h0c0-3.09-2.51-5.6-5.6-5.6h-35.19c-1.73,0-3.14-1.41-3.14-3.14h0c0-1.73,1.41-3.14,3.14-3.14h10.85c2.66,0,4.82-2.16,4.82-4.82Z"/>
        </g>
        <g>
          <g>
            <g>
              <path class="cls-14" d="M354.39,108.09c-2.73,4.05-12.12,8.7-18.25,8.95-6.14.25-6.95-3.75-7.97-11.64-1.01-7.89.83-27.23,16.65-22.07,15.83,5.15,13.03,19.63,9.57,24.76Z"/>
              <polygon class="cls-14" points="355.93 137.66 351.51 102.09 334.94 104.36 338.28 136.64 355.93 137.66"/>
              <path class="cls-6" d="M334.94,104.36l16.56-2.27,1.19,9.61h0s-8.26,16.43-15.01,19.26l-2.75-26.59Z"/>
              <path class="cls-5" d="M338.93,113.87l13.77-2.17s6.24-8.62,7.28-15.92c2.86-20.25-9.6-18.67-16.02-21.37-9.45-3.98-20.26-2.33-13.39,14.25l9.57-3.43s-4.4,3.67-6.94,7.52c-2.54,3.85,1.63,7.64,1.63,7.64l4.11,13.48Z"/>
              <path class="cls-14" d="M333.27,98.29c2.14-2.67,4.34-3.3,6.85-1.15,2.51,2.15,2.64,3.03.2,6.43-2.44,3.4-5.6,1.84-6.88.21-1.28-1.62-1.45-3.9-.17-5.5Z"/>
            </g>
            <g>
              <path class="cls-6" d="M354.56,141.1l11.67-8.5s38,42.12,38.65,46.38c.66,4.26-20.27,59.43-20.27,59.43,0,0,1.94,11.58,2.73,13.62.79,2.04.94,5.87-1.5,6.49,0,0,.61,1.86-.68,2.16,0,0-.34,1.3-1.85,1.57-1.52.27-4.43-1.2-4.54-2.87-.11-1.66-.72-4.72-.72-4.72,0,0-1.16,3.9-2.6,2.69-1.44-1.21-1.71-2.39-.01-4.15,1.7-1.76-1.85-11.57,2.23-14.79l10.74-59.99-33.86-37.32Z"/>
              <path class="cls-17" d="M354.08,131.43c8.01-7.14,17.79-3.46,27.72,9.24,9.94,12.7,27.09,39.52,27.09,39.52l-21.08,57.56-14.49-3.09,11.31-54.03s-21.01-17.34-28.21-26.88c-7.2-9.54-9.65-15.82-2.35-22.33Z"/>
              <path class="cls-7" d="M381.81,140.68c-9.94-12.7-19.71-16.38-27.72-9.24-7.3,6.51-4.85,12.8,2.35,22.33,5.94,7.86,21.25,21.03,26.45,25.41l7-27.46c-2.88-4.11-5.69-7.99-8.08-11.04Z"/>
              <polygon class="cls-7" points="380.91 198.43 373.33 234.67 387.81 237.76 405.82 188.57 380.91 198.43"/>
            </g>
            <g>
              <path class="cls-2" d="M384.53,289.72l-8.96-65.35.25-5.51-45.68-1.62.66,3.45-27.58,142.78c16.53-7.19,34.58-19.93,34.58-19.93,2.15-1.61,4.26-3.27,6.32-4.97l8.47-61.73,4.38,49.94c10.8-10.98,20.09-23.44,27.55-37.06Z"/>
              <path class="cls-11" d="M363.93,259.08c-1.11.07-2.24-.17-3.23-.72l-5.72-3.15c-1.94-1.07-3.1-3.1-3.04-5.31l.34-12.4c.04-1.57.7-3.03,1.84-4.11,1.14-1.08,2.64-1.65,4.21-1.61l10.91.3c1.58.04,3.04.7,4.12,1.85,1.08,1.15,1.65,2.65,1.6,4.22l-.43,13.51c-.08,2.44-1.68,4.6-3.98,5.39l-5.11,1.74c-.49.17-1,.27-1.51.3ZM357.89,233.44c-.98.06-1.9.46-2.62,1.15-.82.78-1.29,1.82-1.32,2.95l-.34,12.4c-.04,1.59.79,3.05,2.18,3.81l5.72,3.16c1.04.57,2.28.68,3.4.3l5.11-1.74c1.66-.56,2.8-2.12,2.86-3.86l.43-13.51c.04-1.13-.37-2.21-1.15-3.03-.78-.82-1.83-1.29-2.96-1.32l-10.91-.3c-.13,0-.27,0-.4,0Z"/>
              <rect class="cls-11" x="328.74" y="276.15" width="43.35" height="1.66" transform="translate(-8.34 10.88) rotate(-1.76)"/>
              <path class="cls-12" d="M354.75,218.11l15.02,94.07c5.5-7.06,10.44-14.57,14.77-22.47l-8.96-65.35.25-5.51-21.08-.75Z"/>
              <path class="cls-11" d="M342.95,339.52c.4-.32.8-.63,1.19-.96l8.47-61.73-18.72.57,9.06,62.11Z"/>
            </g>
            <path class="cls-16" d="M326.06,130.62c-7.38,8.4-8.47,19.81-6.9,28.7,1.56,8.89,11.66,61.37,11.66,61.37l44.76,3.68s2.49-54.16,3.29-68.89c.79-14.73-2.32-21.57-9.11-26.2-6.79-4.63-34.56-9.05-43.69,1.34Z"/>
            <path class="cls-17" d="M333.61,120.49c5.61-2.18,20.22-3.19,24.16.43l.16,5.12s-4.27,2.47-11.06,2.27c-6.79-.2-13.73-2.89-13.73-2.89l.48-4.93Z"/>
            <path class="cls-17" d="M378.56,144.53c-1.52,23.87-16.95,53.35-16.95,53.35l-22.72-.58c-6.49-14.4-11.84-36.91-11.84-36.91l-7.39,1.67,6.63,34.92h-.01c2.44,12.75,4.55,23.71,4.55,23.71l44.76,3.68s2.49-54.16,3.29-68.89c.23-4.27.12-7.86-.3-10.95Z"/>
          </g>
          <g>
            <path class="cls-6" d="M268.27,152.49c-6.27-2.46-11.94,5.64-15.52,14.65-3.58,9.01-10.87,31.26-10.87,31.26l6.98,18.25s18.01-39.52,20.87-45.55c2.86-6.03,5.08-16.03-1.46-18.6Z"/>
            <path class="cls-13" d="M265.57,200.83l-24.49-15.65s7.64-22.69,8.39-26.51c.76-3.82,7.67-10.88,18.1-9,10.43,1.88,9.15,11.32,5.97,20.67-3.19,9.35-7.97,30.5-7.97,30.5Z"/>
          </g>
          <g>
            <g>
              <path class="cls-14" d="M135.35,323.08l24.91-.83v35.6s-16.67-9.33-19.86-12.21l-5.06-22.56Z"/>
              <path class="cls-6" d="M160.26,322.25l-24.91.83,5.06,22.56c.58.52,1.6,1.25,2.88,2.1l16.98-18.01v-7.48Z"/>
            </g>
            <g>
              <path class="cls-6" d="M117.6,155.5c-6.39-6.06-43.95,47.02-43.95,47.02l24.83,37.84s-6.24,4.42-3.61,12.44c2.63,8.02,6.59,13.2,10.52,10.37,3.93-2.83,5.65-21.31,1.68-26.81s-11.76-33.99-11.76-33.99c0,0,16.36-22.74,23.6-31.21,7.25-8.47,2.65-11.9-1.31-15.66Z"/>
              <path class="cls-17" d="M110.87,195.85l-20.71-24.42s15.39-21.42,17.43-25.2c2.04-3.78,11.6-8.97,21.97-3.61,10.37,5.36,5.97,14.89-.41,23.7-6.38,8.81-18.27,29.53-18.27,29.53Z"/>
              <path class="cls-14" d="M84.64,187.65c-6.32,8.27-10.98,14.86-10.98,14.86l16.31,24.86,9.32-11.41c-2.25-7.27-3.98-13.59-3.98-13.59,0,0,1.7-2.36,4.24-5.83l-14.91-8.88Z"/>
            </g>
            <g>
              <polygon class="cls-14" points="148.45 142.15 146.38 106.35 129.7 107.53 130.91 139.97 148.45 142.15"/>
              <path class="cls-6" d="M129.7,107.53l16.68-1.18.56,9.67h0s.92,23.24-16.04,23.56l-1.2-32.05Z"/>
              <path class="cls-14" d="M146.94,116.03c-3.6,3.3-13.82,5.62-19.85,4.43-6.03-1.19-5.88-5.28-5.02-13.19.86-7.91,7.19-26.28,21.37-17.56,14.18,8.72,8.07,22.14,3.5,26.32Z"/>
              <path class="cls-5" d="M132.21,101.51c-4.35,7.3-.4,11.19,3.14,11.46,0,0-8.07,1.68-6.3,13.07,1.77,11.4,24.4,8.75,26.44.1,2.04-8.65-5.48-11.41-5.48-11.41,0,0,9.71-5.48,9.16-14.91s-12.1-22.05-24.89-19.03c-12.79,3.01-15.6,9.31-14.03,16.74l11.96,3.99Z"/>
              <path class="cls-14" d="M130.78,106.54c2.31-2.52,4.55-3.01,6.91-.69,2.37,2.31,2.43,3.2-.23,6.43-2.66,3.23-5.71,1.46-6.88-.24-1.17-1.71-1.2-3.98.19-5.5Z"/>
            </g>
            <g>
              <path class="cls-2" d="M161.65,225.27l-.48-15.54-46.41-2.86,1.54,14.85s-13.28-.07-19.59,37.57c-1.85,11.05-2.89,17.91-4.23,28.12,10.17,19.91,24.15,39.54,40.89,52.91,10.66-2.93,23.4-9.23,34.4-3.43,13.61,7.18,11.58-2.38,9.52-27.22-2.07-24.84-8.89-73.74-15.64-84.39Z"/>
              <path class="cls-11" d="M115.39,212.86c18.14-.1,38.55,2.46,45.99,3.48l.07,2.2c-7.02-.99-27.56-3.63-45.83-3.52l-.22-2.16Z"/>
              <path class="cls-11" d="M116.31,221.72l-.15-1.45c18.01-.05,38.09,2.47,45.45,3.49l.05,1.51c.14.22.28.49.42.74-6.85-.97-29.17-3.89-48.29-3.56,1.55-.74,2.52-.74,2.52-.74Z"/>
              <path class="cls-12" d="M177.29,309.66c-2.07-24.84-8.89-73.74-15.64-84.39l-.48-15.54-19.79-1.22,4.35,55.18-35.98-.24.08,2.52,36.16.99,5.38,68.17c5.59-1.04,11.19-1.01,16.4,1.74,13.61,7.18,11.58-2.38,9.52-27.22Z"/>
            </g>
            <g>
              <path class="cls-16" d="M163.15,215.64s-10.75,4.91-19.95-2.22c-9.2-7.13-25.67,1.77-30.88,2.34,0,0-7.88-26.71-5.45-46.2,3.36-26.93,11.97-30.21,21.14-32.49,7.57-1.88,17.58-2.28,26.25-.19,8.68,2.08,14.01,5.35,16.72,17.01,2.71,11.66-1.09,39.24-7.83,61.76Z"/>
              <path class="cls-17" d="M163.58,214.18c-4.35-4.9-10.06-12.5-12.16-20.57-3.58-13.73,9.83-21.06,9.83-21.06,2.66-1.71,6.18,1.67,9.56,6.59-1.35,11.08-3.9,23.64-7.23,35.04Z"/>
            </g>
          </g>
          <g>
            <g>
              <path class="cls-15" d="M303.54,214.83l-43.24-.73.94,5.07s-9.41,19.58-14.65,34.41c-5.24,14.82-20.48,122.83-20.48,122.83,4.35,1.17,26.26-.24,26.26-.24l27.3-108.95,3.55-.11,15.45,98.23c3.82-.87,16.75-7.91,16.75-7.91,0,0,4.3-86.35,4.35-97.31.05-10.96-1.09-22.67-18.03-38.98l1.8-6.31Z"/>
              <polygon class="cls-5" points="263.61 267.71 279.67 267.22 259.97 345.82 263.61 267.71"/>
              <rect class="cls-5" x="263.6" y="266.17" width="46.33" height="1.66" transform="translate(-8.06 8.93) rotate(-1.76)"/>
              <path class="cls-5" d="M275.3,239.58l-16.14.5c-.46.01-.84-.35-.86-.8h0c-.01-.46.35-.84.8-.86l16.14-.5c.46-.01.84.35.86.8h0c.01.46-.35.84-.8.86Z"/>
              <path class="cls-5" d="M298.59,259.1c-.97.11-1.96-.05-2.85-.48l-5.12-2.49c-1.74-.84-2.84-2.56-2.89-4.49l-.27-10.82c-.03-1.37.47-2.67,1.41-3.67.95-.99,2.22-1.56,3.59-1.59l9.52-.24c1.38-.03,2.68.47,3.68,1.42s1.56,2.23,1.59,3.61l.25,11.79c.04,2.13-1.25,4.08-3.22,4.88l-4.37,1.75c-.42.17-.86.28-1.31.33ZM292.15,237.04c-.85.1-1.63.49-2.23,1.12-.68.71-1.04,1.65-1.01,2.63l.27,10.82c.03,1.38.83,2.62,2.08,3.22l5.13,2.49c.93.45,2.02.49,2.98.11l4.37-1.75c1.42-.57,2.35-1.97,2.31-3.5l-.25-11.79c-.02-.99-.43-1.91-1.14-2.59-.71-.68-1.65-1.04-2.64-1.02l-9.52.24c-.12,0-.23.01-.35.02Z"/>
              <path class="cls-3" d="M303.54,214.83l-1.8,6.31c16.94,16.31,18.08,28.02,18.03,38.98-.05,10.96-4.48,97.38-4.48,97.38l-6.37,3.42-19.7-146.33,14.32.24Z"/>
            </g>
            <g>
              <g>
                <path class="cls-1" d="M301.74,221.13s-31.24-2.16-40.5-1.97c0,0-8.39-29.78-9.02-50.33-.63-20.55,6.74-24.63,15.57-28.75,8.83-4.11,21.7-3.02,25.81-1.17,4.11,1.85,15.52,4.09,18.23,15.75,2.71,11.66-3.35,43.95-10.09,66.47Z"/>
                <path class="cls-13" d="M304.03,213c-3.46-4.02-9.23-11.65-11.18-19.81-2.84-11.95,7.66-18.29,7.66-18.29,2.66-1.89,6.45,3.43,9.7,9.57-1.55,9.32-3.76,19.37-6.19,28.54Z"/>
              </g>
              <g>
                <path class="cls-6" d="M305.33,145.5c11.7-1.59,15.25,44.97,15.25,44.97l47.74,4.62,1.54,9.04-60.27,3.32s-11.51-39.24-13.05-47.65-.95-12.98,8.8-14.3Z"/>
                <path class="cls-1" d="M301.26,142.91c9.79-2.74,15.54,6.72,21.16,23.44,5.62,16.72,6.86,19.07,6.86,19.07,0,0-7.88-5.95-12.19-.23-4.31,5.73-16.56,8.01-21.15,2.05,0,0-3-21.35-3.88-30.76-.89-9.42,1.21-11.33,9.2-13.57Z"/>
                <path class="cls-14" d="M309.59,207.45s-1.43-4.86-3.34-11.52l10.83-4.3-2.03,15.52-5.46.3Z"/>
                <path class="cls-14" d="M362.94,204.48l2.36-9.69,11.09.75c5.72-2.66,10.21-7.86,11.04-10.74.83-2.88,2.98-.94,2.11,1.75-.87,2.69-2.53,6.87-2.53,6.87,0,0,12.33.23,14.28.22,1.95-.01,1.66,2.02-1.12,2.28-3.24.31-11.55,1.88-11.55,1.88,0,0,14.01-.23,15.25-.37s2.06,2.34-.81,2.42c-4.07.12-14.29,1.09-14.29,1.09,0,0,10.59,1.31,12.29,1.62,1.7.31,2.2,1.8-1.75,1.94-3.96.14-11.28-.18-11.28-.18.59.44,5.37,1.81,8.08,2.66,1.93.61,1.88,2.67-2.09,1.87-4.11-.83-9.48-.87-13.6-1.66-4.12-.79-6.24-3.16-6.24-3.16l-11.22.44Z"/>
              </g>
              <path class="cls-13" d="M322.42,166.35c-4.18-12.43-8.44-20.84-14.37-23.21l-39.98,36.79-15.38-3.98c1.91,19.67,8.55,43.22,8.55,43.22,1.26-.03,2.95,0,4.89.04l58.78-45.55c-.72-2.07-1.54-4.48-2.49-7.31Z"/>
            </g>
            <path class="cls-5" d="M256.53,113.33s1.19-8.53,2.25-11.21l-1.86-.62s2.73-10.76,8.45-15.25c0,0,.01,0,.02-.01,8.41-9.05,19.78-7.9,24.43-3.95,7.93,6.75,16.14,21.69,13.41,32.84-2.73,11.15,27.99,30.83-15.49,39.04-39.5,7.46-35.14-28.05-28.01-37.02l-3.18-3.82Z"/>
          </g>
          <g>
            <g>
              <path class="cls-14" d="M169.18,345.19h16.31v23.31s-10.23-3.65-13.37-5.03l-2.93-18.28Z"/>
              <polygon class="cls-6" points="185.49 345.19 169.18 345.19 172.08 363.25 185.49 352.39 185.49 345.19"/>
            </g>
            <g>
              <path class="cls-14" d="M214.06,339.2l17.37-2.01,1.78,39.68s-8.58-.27-15.7-1.27l-3.45-36.39Z"/>
              <polygon class="cls-6" points="231.43 337.19 214.06 339.2 216.39 363.78 231.93 348.31 231.43 337.19"/>
            </g>
            <g>
              <path class="cls-14" d="M216.79,115.45c-2.73,4.05-12.12,8.7-18.25,8.95-6.14.25-6.95-3.75-7.97-11.64-1.01-7.89.83-27.23,16.65-22.07,15.83,5.15,13.03,19.63,9.57,24.76Z"/>
              <polygon class="cls-14" points="218.33 145.03 213.91 109.45 197.34 111.73 200.68 144 218.33 145.03"/>
              <path class="cls-6" d="M197.34,111.73l16.56-2.27,1.19,9.61h0s-8.26,16.43-15.01,19.26l-2.75-26.59Z"/>
              <path class="cls-5" d="M201.33,121.23l13.77-2.17s7.81-8.57,7.28-15.92c-.54-7.36-9.44-16.43-16.28-16.01-6.84.42-12.06,2.97-14.28,8.33l9.33-.49-5.55,5.16,1.63,7.64,4.11,13.48Z"/>
              <path class="cls-14" d="M195.67,105.65c2.14-2.67,4.34-3.3,6.85-1.15,2.51,2.15,2.64,3.03.2,6.43-2.44,3.4-5.6,1.84-6.88.21-1.28-1.62-1.45-3.9-.17-5.5Z"/>
              <g>
                <g>
                  <path class="cls-13" d="M220.83,103.77s-29.91-22.28-35.19-26.26c-5.28-3.98-14.84.34-4.98,5.76,9.86,5.42,40.17,20.5,40.17,20.5Z"/>
                  <path class="cls-4" d="M187.87,87.1c12.78,6.64,32.95,16.67,32.95,16.67,0,0-19.02-14.17-29.4-21.92-1.56,1.7-2.74,3.65-3.55,5.25Z"/>
                </g>
                <path class="cls-1" d="M222.29,104.67l-30.56-15.58s8.99-19.32,27.47-9.78c15.96,8.24,3.09,25.36,3.09,25.36Z"/>
                <path class="cls-13" d="M195.34,90.93l-1.05-.54c3.1-5.67,7.18-9.9,13.63-13.57.82-.1,1.68-.14,2.56-.11-7.36,3.39-12.05,8.63-15.14,14.22Z"/>
                <path class="cls-13" d="M225.46,98.91c-.14.35-.29.68-.44,1.01-10.02-6.85-13.79-14.49-11.23-22.76.35.08.69.17,1.05.28-2.4,7.74,1.16,14.94,10.62,21.47Z"/>
                <rect class="cls-5" x="212.88" y="97.36" width="10.53" height="2.98" rx="1.41" ry="1.41" transform="translate(65.69 -85.86) rotate(26.09)"/>
              </g>
            </g>
            <g>
              <path class="cls-16" d="M232.13,216.91l-47.26-1.14.18,3.65c-4.17,9.36-15.25,60.26-20.42,84.61-1.82,8.57-7.2,36.2-6.4,44.92l36.73-.43-.84-21.7,5.75-58.37,5.38,77.51,34.14-1.05s-2.2-58.08-2.14-69.04c.05-10.96-6.35-54.73-6.35-54.73l1.23-4.23Z"/>
              <polygon class="cls-17" points="182.51 268.98 199.88 268.45 194.12 326.82 194.97 348.52 182.51 268.98"/>
              <path class="cls-9" d="M230.17,345.19l-15.41-128.7,17.37.42-1.23,4.23s6.41,43.77,6.35,54.73c-.05,10.96,2.14,69.04,2.14,69.04l-9.23.28Z"/>
              <path class="cls-17" d="M217.47,260.15c-1.12.03-2.23-.25-3.2-.83l-5.6-3.35c-1.9-1.13-2.99-3.21-2.86-5.41l.76-12.38c.1-1.57.8-3.01,1.98-4.05,1.18-1.04,2.69-1.56,4.26-1.46l10.89.67c1.57.1,3.01.8,4.06,1.99,1.04,1.18,1.56,2.7,1.46,4.27l-.89,13.49c-.16,2.43-1.83,4.54-4.17,5.25l-5.16,1.57c-.5.15-1.01.23-1.52.25ZM212.31,234.31c-.98.03-1.92.4-2.66,1.06-.85.75-1.35,1.78-1.42,2.91l-.76,12.38c-.1,1.58.69,3.07,2.05,3.89l5.61,3.35c1.02.61,2.26.76,3.39.42l5.16-1.57c1.67-.51,2.88-2.02,2.99-3.76l.89-13.49c.07-1.13-.3-2.22-1.04-3.07-.75-.85-1.78-1.36-2.91-1.42l-10.89-.67c-.13,0-.27-.01-.4,0Z"/>
              <rect class="cls-17" x="180.2" y="267.68" width="35.45" height="1.66" transform="translate(-8.15 6.2) rotate(-1.76)"/>
            </g>
            <g>
              <path class="cls-7" d="M230.9,221.14s-35.7-2.82-45.85-1.72c0,0-3.8-68.43,2.68-74.84,6.48-6.41,21.8-7.32,30.47-5.24,8.67,2.08,20.07,3.69,22.78,15.35,2.71,11.66-3.35,43.94-10.09,66.45Z"/>
              <path class="cls-10" d="M233.35,212.42c.33-1.24.65-2.5.97-3.76.07-.29.14-.57.21-.86.31-1.26.62-2.52.92-3.79.06-.26.12-.51.18-.77.13-.56.26-1.11.39-1.67h0c1.57-6.92,2.94-13.95,3.93-20.5-3.75-2.02-7.3-4.01-9.8-5.58-5-3.13-6.68-8.14-6.82-12.73-.85,6.03-1.94,14.72-2.51,22.97-.21,3.09.51,6.81,1.77,10.77l-29.72-11.22-8.86-.19c.16,17.66,1.08,34.35,1.08,34.35,10.14-1.09,45.85,1.72,45.85,1.72.4-1.33.79-2.69,1.18-4.08,0,0,0,0,0,0,.01-.04.02-.09.03-.13.35-1.26.7-2.54,1.05-3.83.06-.23.12-.46.18-.68Z"/>
            </g>
            <g>
              <path class="cls-14" d="M119.84,152.28l5.7-8.84-7.95-8.61c-2.01-5.98-1.86-11.28-.34-13.86,1.52-2.58-1.37-2.81-2.72-.32s-3.24,6.57-3.24,6.57c0,0-8.66-8.78-9.99-10.2-1.33-1.43-2.6.19-.88,2.39,2.01,2.57,6.59,9.67,6.59,9.67,0,0-9.48-10.32-10.23-11.31-.75-1-3.11.12-1.2,2.26,2.72,3.04,9.05,11.12,9.05,11.12,0,0-8.24-6.78-9.64-7.8-1.4-1.02-2.82-.36-.2,2.61,2.62,2.96,7.9,8.06,7.9,8.06-.73-.12-5.01-2.65-7.49-4.02-1.77-.98-3.23.47.09,2.8,3.43,2.41,7.16,6.27,10.57,8.72s6.58,2.35,6.58,2.35l7.4,8.44Z"/>
              <path class="cls-14" d="M200.71,149.79c-3.46-5.71-4.56-8.11-13.89-2.58-9.33,5.53-23.19,16.56-23.19,16.56l-38.09-20.34-8.03,6.19,36.17,40.84s31.7-15.65,38.71-20.07c7.01-4.42,11.24-15.77,8.32-20.61Z"/>
              <path class="cls-7" d="M203.89,150.08c-2.75-6.33-9.66-12.42-21.61-3.82s-22.45,13.43-22.45,13.43l12.55,27.96s19.21-11.07,27.13-16.74c7.92-5.67,6.52-15.89,4.38-20.83Z"/>
            </g>
          </g>
          <g>
            <path class="cls-14" d="M241.88,198.39l-39.39-13.02-11.15-4.59c-3.75-3.84-5.59-7.95-5.38-10.49.21-2.54-2.09-1.64-2.21.76-.12,2.4-.05,6.23-.05,6.23,0,0-9.88-3.52-11.43-4.12-1.55-.6-1.93,1.1.21,2.16,2.49,1.22,8.62,4.97,8.62,4.97,0,0-11.08-4.4-12.02-4.88-.95-.48-2.34,1.24-.08,2.17,3.2,1.32,11.04,5.17,11.04,5.17,0,0-8.82-2.15-10.27-2.41-1.45-.27-2.3.77.81,2.07,3.11,1.3,9.03,3.25,9.03,3.25-.6.17-4.82-.18-7.23-.31-1.72-.1-2.3,1.56,1.1,2.11,3.52.58,7.8,2.16,11.32,2.77,3.52.61,5.91-.63,5.91-.63l8.07,3.63,50.07,23.42-6.98-18.25Z"/>
            <path class="cls-6" d="M202.49,185.38l-11.15-4.59c-3.75-3.84-5.59-7.95-5.38-10.49.21-2.54-2.09-1.64-2.21.76s-.05,6.23-.05,6.23c0,0-9.88-3.52-11.43-4.12-1.55-.6-1.93,1.1.21,2.16,2.49,1.22,8.62,4.97,8.62,4.97,0,0-11.08-4.4-12.02-4.88s-2.34,1.24-.08,2.17c3.2,1.32,11.04,5.17,11.04,5.17,0,0-8.82-2.15-10.27-2.41s-2.3.77.81,2.07c3.11,1.3,9.03,3.25,9.03,3.25-.6.17-4.82-.18-7.23-.31-1.72-.1-2.3,1.55,1.1,2.11,3.52.58,7.8,2.16,11.32,2.77s5.91-.63,5.91-.63l8.07,3.63,10.47,4.9,10.88-6.92-17.65-5.83Z"/>
          </g>
          <g>
            <path class="cls-14" d="M304.12,150.47l-6.23-8.47,7.41-9.08c1.64-6.09,1.16-11.37-.52-13.85-1.68-2.49,1.2-2.89,2.7-.49,1.5,2.4,3.63,6.36,3.63,6.36,0,0,8.1-9.29,9.35-10.8,1.24-1.51,2.61.03,1.03,2.33-1.85,2.69-5.98,10.05-5.98,10.05,0,0,8.83-10.88,9.52-11.92.69-1.04,3.11-.07,1.33,2.18-2.52,3.2-8.35,11.65-8.35,11.65,0,0,7.81-7.27,9.14-8.38,1.33-1.1,2.8-.53.36,2.59s-7.39,8.53-7.39,8.53c.72-.17,4.84-2.95,7.23-4.47,1.71-1.09,3.25.27.09,2.8-3.27,2.61-6.76,6.7-10.02,9.35-3.25,2.65-6.43,2.75-6.43,2.75l-6.87,8.87Z"/>
            <path class="cls-14" d="M223.25,152.95c3.1-5.91,4.06-8.37,13.71-3.43,9.65,4.95,24.17,15.11,24.17,15.11l36.77-22.64,8.39,5.68-33.6,42.99s-32.6-13.68-39.86-17.66c-7.27-3.98-12.19-15.05-9.57-20.06Z"/>
            <path class="cls-7" d="M220.1,153.43c2.35-6.48,8.88-12.99,21.34-5.14,12.45,7.85,23.23,12.03,23.23,12.03l-10.81,28.68s-19.85-9.87-28.11-15.05c-8.25-5.17-7.48-15.46-5.65-20.52Z"/>
          </g>
          <g>
            <path class="cls-6" d="M254.09,175.42l2.69-10.17-10.22-5.73c-3.75-5.07-5.25-10.15-4.6-13.08.65-2.93-2.17-2.25-2.69.53-.52,2.78-1.05,7.24-1.05,7.24,0,0-10.94-5.68-12.65-6.62-1.71-.95-2.42.98-.1,2.54,2.7,1.82,9.25,7.16,9.25,7.16,0,0-12.2-6.89-13.23-7.6-1.02-.71-2.92,1.07-.44,2.52,3.52,2.05,12.04,7.78,12.04,7.78,0,0-9.93-3.9-11.57-4.44-1.64-.54-2.8.53.61,2.54,3.41,2.01,10,5.23,10,5.23-.73.11-5.58-.97-8.37-1.51-1.99-.39-2.93,1.45.95,2.64,4,1.23,8.75,3.76,12.75,5.03,4,1.28,6.99.2,6.99.2l9.65,5.74Z"/>
            <path class="cls-16" d="M335.94,133.56c5.23,7.55-7.07,25.48-16.05,36.02-8.98,10.54-25.78,25.42-25.78,25.42l-48.91-22.26,8.31-11.79,38.19,10.74s18.52-29.25,24.3-35.16c5.78-5.91,14.71-10.52,19.95-2.98Z"/>
            <path class="cls-17" d="M252.6,169.49c-.04-1.19.9-2.18,2.09-2.22,1.19-.04,2.18.9,2.22,2.09.04,1.19-.9,2.18-2.09,2.22-1.19.04-2.18-.9-2.22-2.09ZM253.69,169.46c.02.59.51,1.05,1.1,1.03.59-.02,1.05-.51,1.03-1.1-.02-.59-.51-1.05-1.1-1.03-.59.02-1.05.51-1.03,1.1Z"/>
            <path class="cls-17" d="M258.91,171.86c-.04-1.19.9-2.18,2.09-2.22,1.19-.04,2.18.9,2.22,2.09.04,1.19-.9,2.18-2.09,2.22-1.19.04-2.18-.9-2.22-2.09ZM259.99,171.82c.02.59.51,1.05,1.1,1.03.59-.02,1.05-.51,1.03-1.1-.02-.59-.51-1.05-1.1-1.03-.59.02-1.05.51-1.03,1.1Z"/>
          </g>
          <g>
            <polygon class="cls-14" points="170.96 155.34 155.65 162.96 179.93 205.6 222.08 178.35 217.68 170.77 186.4 181.12 170.96 155.34"/>
            <path class="cls-14" d="M217.1,181.59l-3.02-9.63,10.44-4.46c3.52-5.23,4.17-12.5,3.39-15.4-.78-2.9,2.07-2.34,2.71.41.64,2.75,1.37,7.19,1.37,7.19,0,0,10.68-6.16,12.34-7.18,1.67-1.02,2.46.87.22,2.54-2.62,1.94-8.92,7.57-8.92,7.57,0,0,11.88-7.43,12.87-8.18.99-.76,2.97.94.55,2.49-3.43,2.21-11.68,8.31-11.68,8.31,0,0,9.75-4.34,11.36-4.96s2.82.41-.5,2.57-9.75,5.67-9.75,5.67c.73.07,5.53-1.22,8.29-1.89,1.97-.48,2.99,1.31-.83,2.68-3.94,1.41-8.57,4.14-12.51,5.6-3.94,1.45-6.97.52-6.97.52l-9.38,6.17Z"/>
            <path class="cls-6" d="M170.59,189.2c5.29-2.6,10.61-5.79,15.35-8.85l-14.98-25.01-15.31,7.62,14.95,26.24Z"/>
            <path class="cls-16" d="M142.7,139.44c4.14-6.63,13.49-8.52,26.81,5.89,13.32,14.4,18.26,19.18,18.26,19.18,0,0-8.13,8.34-17.59,13.04-9.46,4.7-11.55,2.23-11.55,2.23,0,0-21.19-31.91-15.93-40.34Z"/>
          </g>
        </g>
      </g>
    </g>
  </g>
</svg>