<?xml version="1.0" encoding="UTF-8"?>
<svg id="Livello_2" data-name="Livello 2" xmlns="http://www.w3.org/2000/svg" xmlns:xlink="http://www.w3.org/1999/xlink" viewBox="0 0 257.69 77.2">
  <defs>
    <style>
      .cls-1 {
        clip-path: url(#clippath);
      }

      .cls-2 {
        clip-rule: evenodd;
      }

      .cls-2, .cls-3, .cls-4, .cls-5 {
        fill: #fff;
      }

      .cls-2, .cls-4 {
        stroke-width: 0px;
      }

      .cls-6 {
        clip-path: url(#clippath-4);
      }

      .cls-7 {
        clip-path: url(#clippath-2);
      }

      .cls-8 {
        clip-path: url(#clippath-6);
      }

      .cls-9 {
        fill: none;
        stroke: #fff;
        stroke-miterlimit: 10;
        stroke-width: 3px;
      }

      .cls-5 {
        fill-rule: evenodd;
      }
    </style>
    <clipPath id="clippath">
      <path class="cls-2" d="M31.67,34.89c0,2.4-1.95,4.35-4.35,4.35s-4.35-1.95-4.35-4.35v-15.09c0-2.4,1.95-4.35,4.35-4.35h15.09c2.4,0,4.35,1.95,4.35,4.35s-1.95,4.35-4.35,4.35h-6.19l6.49,6.49c1.51,1.51,1.51,3.96,0,5.47-1.51,1.51-3.96,1.51-5.47,0l-5.56-5.56v4.34h0Z"/>
    </clipPath>
    <clipPath id="clippath-2">
      <path class="cls-2" d="M23.26,59.09c0-4.79,3.92-8.71,8.71-8.71h10.45c4.81,0,9.18-1.96,12.34-5.13,3.1-3.11,5.05-7.37,5.13-12.07-.1,4.19-8.75,8.49-17.47,8.49h-14.8c-2.4,0-4.35,1.95-4.35,4.35v13.06h0Z"/>
    </clipPath>
    <clipPath id="clippath-4">
      <path class="cls-2" d="M31.96,60.92v-10.54c-4.79,0-8.71,3.92-8.71,8.71v1.84c0,2.4,1.95,4.35,4.35,4.35s4.35-1.95,4.35-4.35h0Z"/>
    </clipPath>
    <clipPath id="clippath-6">
      <path class="cls-2" d="M42.41,41.68c8.71,0,17.37-4.3,17.47-8.49,0-.02,0-.04,0-.06h0c0-.08,0-.14,0-.21,0-2-.36-3.99-1.05-5.89-.69-1.91-1.69-3.68-2.97-5.22-1.53-1.85-4.27-2.11-6.12-.58-1.85,1.53-2.11,4.27-.58,6.12.67.8,1.17,1.69,1.5,2.6.33.91.5,1.91.5,2.96,0,2.41-.99,4.6-2.58,6.19-1.59,1.59-3.78,2.58-6.19,2.58h0Z"/>
    </clipPath>
  </defs>
  <g id="Livello_1-2" data-name="Livello 1">
    <g>
      <path class="cls-9" d="M76.1,61.7c0,7.71-6.32,14-14.07,14H1.5V15.5C1.5,7.79,7.82,1.5,15.6,1.5h60.5v60.2Z"/>
      <g>
        <g>
          <path class="cls-5" d="M31.67,34.89c0,2.4-1.95,4.35-4.35,4.35s-4.35-1.95-4.35-4.35v-15.09c0-2.4,1.95-4.35,4.35-4.35h15.09c2.4,0,4.35,1.95,4.35,4.35s-1.95,4.35-4.35,4.35h-6.19l6.49,6.49c1.51,1.51,1.51,3.96,0,5.47-1.51,1.51-3.96,1.51-5.47,0l-5.56-5.56v4.34h0Z"/>
          <g class="cls-1">
            <rect class="cls-3" x="22.97" y="15.44" width="23.8" height="23.8"/>
          </g>
        </g>
        <g>
          <path class="cls-5" d="M23.26,59.09c0-4.79,3.92-8.71,8.71-8.71h10.45c4.81,0,9.18-1.96,12.34-5.13,3.1-3.11,5.05-7.37,5.13-12.07-.1,4.19-8.75,8.49-17.47,8.49h-14.8c-2.4,0-4.35,1.95-4.35,4.35v13.06h0Z"/>
          <g class="cls-7">
            <rect class="cls-3" x="23.26" y="33.18" width="36.62" height="25.91"/>
          </g>
        </g>
        <g>
          <path class="cls-5" d="M31.96,60.92v-10.54c-4.79,0-8.71,3.92-8.71,8.71v1.84c0,2.4,1.95,4.35,4.35,4.35s4.35-1.95,4.35-4.35h0Z"/>
          <g class="cls-6">
            <rect class="cls-3" x="23.26" y="50.38" width="8.71" height="14.9"/>
          </g>
        </g>
        <g>
          <path class="cls-5" d="M42.41,41.68c8.71,0,17.37-4.3,17.47-8.49,0-.02,0-.04,0-.06h0c0-.08,0-.14,0-.21,0-2-.36-3.99-1.05-5.89-.69-1.91-1.69-3.68-2.97-5.22-1.53-1.85-4.27-2.11-6.12-.58-1.85,1.53-2.11,4.27-.58,6.12.67.8,1.17,1.69,1.5,2.6.33.91.5,1.91.5,2.96,0,2.41-.99,4.6-2.58,6.19-1.59,1.59-3.78,2.58-6.19,2.58h0Z"/>
          <g class="cls-8">
            <rect class="cls-3" x="42.41" y="19.7" width="17.47" height="21.98"/>
          </g>
        </g>
      </g>
      <g>
        <g>
          <path class="cls-4" d="M91.28,51.4v-23.27h11c4.33,0,7.07,3.03,7.07,7.43s-2.73,7.43-7.07,7.43h-5.93v8.4h-5.07ZM96.35,38.6h5.33c1.5,0,2.43-.8,2.43-2.3v-1.47c0-1.5-.93-2.3-2.43-2.3h-5.33v6.07Z"/>
          <path class="cls-4" d="M118.23,51.4h-5.07v-23.27h11.03c4.3,0,7.03,3,7.03,7.43,0,3.13-1.4,5.63-4.23,6.7l4.57,9.13h-5.63l-4.07-8.53h-3.63v8.53ZM123.56,38.6c1.5,0,2.43-.8,2.43-2.3v-1.47c0-1.5-.93-2.3-2.43-2.3h-5.33v6.07h5.33Z"/>
          <path class="cls-4" d="M135.64,51.4v-23.27h15.83v4.5h-10.77v4.77h9.23v4.47h-9.23v5.03h10.77v4.5h-15.83Z"/>
          <path class="cls-4" d="M154.59,48.03l3.33-3.37c1.57,1.77,3.57,2.67,5.83,2.67,2.47,0,3.67-1.1,3.67-2.8,0-1.27-.53-2.2-2.7-2.5l-2.3-.3c-4.9-.63-7.13-3.03-7.13-6.93,0-4.17,3.27-7.07,8.73-7.07,3.5,0,6.17,1.17,8.07,3.27l-3.37,3.4c-1.1-1.3-2.6-2.2-5-2.2-2.27,0-3.37.87-3.37,2.27,0,1.6.83,2.2,2.77,2.5l2.3.37c4.77.77,7.07,2.9,7.07,6.9,0,4.47-3.27,7.57-9.07,7.57-4.07,0-6.83-1.57-8.83-3.77Z"/>
          <path class="cls-4" d="M185.64,32.63v18.77h-5.07v-18.77h-6.3v-4.5h17.67v4.5h-6.3Z"/>
          <path class="cls-4" d="M193.69,39.77c0-7.9,4.07-12.03,10.23-12.03s10.23,4.13,10.23,12.03-4.07,12.03-10.23,12.03-10.23-4.13-10.23-12.03ZM208.79,41.5v-3.47c0-3.7-1.83-5.8-4.87-5.8s-4.87,2.1-4.87,5.8v3.47c0,3.7,1.83,5.8,4.87,5.8s4.87-2.1,4.87-5.8Z"/>
          <path class="cls-4" d="M216.74,49.1v-.67c0-1.53.93-2.67,2.93-2.67s2.93,1.13,2.93,2.67v.67c0,1.53-.93,2.67-2.93,2.67s-2.93-1.13-2.93-2.67Z"/>
          <path class="cls-4" d="M226.51,51.4v-4.03h3v-15.2h-3v-4.03h11.07v4.03h-3v15.2h3v4.03h-11.07Z"/>
          <path class="cls-4" d="M251.39,32.63v18.77h-5.07v-18.77h-6.3v-4.5h17.67v4.5h-6.3Z"/>
        </g>
        <g>
          <path class="cls-4" d="M91.28,51.4v-23.27h11c4.33,0,7.07,3.03,7.07,7.43s-2.73,7.43-7.07,7.43h-5.93v8.4h-5.07ZM96.35,38.6h5.33c1.5,0,2.43-.8,2.43-2.3v-1.47c0-1.5-.93-2.3-2.43-2.3h-5.33v6.07Z"/>
          <path class="cls-4" d="M118.23,51.4h-5.07v-23.27h11.03c4.3,0,7.03,3,7.03,7.43,0,3.13-1.4,5.63-4.23,6.7l4.57,9.13h-5.63l-4.07-8.53h-3.63v8.53ZM123.56,38.6c1.5,0,2.43-.8,2.43-2.3v-1.47c0-1.5-.93-2.3-2.43-2.3h-5.33v6.07h5.33Z"/>
          <path class="cls-4" d="M135.64,51.4v-23.27h15.83v4.5h-10.77v4.77h9.23v4.47h-9.23v5.03h10.77v4.5h-15.83Z"/>
          <path class="cls-4" d="M154.59,48.03l3.33-3.37c1.57,1.77,3.57,2.67,5.83,2.67,2.47,0,3.67-1.1,3.67-2.8,0-1.27-.53-2.2-2.7-2.5l-2.3-.3c-4.9-.63-7.13-3.03-7.13-6.93,0-4.17,3.27-7.07,8.73-7.07,3.5,0,6.17,1.17,8.07,3.27l-3.37,3.4c-1.1-1.3-2.6-2.2-5-2.2-2.27,0-3.37.87-3.37,2.27,0,1.6.83,2.2,2.77,2.5l2.3.37c4.77.77,7.07,2.9,7.07,6.9,0,4.47-3.27,7.57-9.07,7.57-4.07,0-6.83-1.57-8.83-3.77Z"/>
          <path class="cls-4" d="M185.64,32.63v18.77h-5.07v-18.77h-6.3v-4.5h17.67v4.5h-6.3Z"/>
          <path class="cls-4" d="M193.69,39.77c0-7.9,4.07-12.03,10.23-12.03s10.23,4.13,10.23,12.03-4.07,12.03-10.23,12.03-10.23-4.13-10.23-12.03ZM208.79,41.5v-3.47c0-3.7-1.83-5.8-4.87-5.8s-4.87,2.1-4.87,5.8v3.47c0,3.7,1.83,5.8,4.87,5.8s4.87-2.1,4.87-5.8Z"/>
          <path class="cls-4" d="M216.74,49.1v-.67c0-1.53.93-2.67,2.93-2.67s2.93,1.13,2.93,2.67v.67c0,1.53-.93,2.67-2.93,2.67s-2.93-1.13-2.93-2.67Z"/>
          <path class="cls-4" d="M226.51,51.4v-4.03h3v-15.2h-3v-4.03h11.07v4.03h-3v15.2h3v4.03h-11.07Z"/>
          <path class="cls-4" d="M251.39,32.63v18.77h-5.07v-18.77h-6.3v-4.5h17.67v4.5h-6.3Z"/>
        </g>
      </g>
    </g>
  </g>
</svg>