<?xml version="1.0" encoding="UTF-8"?>
<svg id="Livello_2" data-name="Livello 2" xmlns="http://www.w3.org/2000/svg" xmlns:xlink="http://www.w3.org/1999/xlink" viewBox="0 0 15.66 15.66">
  <defs>
    <style>
      .cls-1 {
        fill: url(#Sfumatura_senza_nome_239);
      }

      .cls-1, .cls-2 {
        stroke-width: 0px;
      }

      .cls-2 {
        fill: #fff;
      }
    </style>
    <linearGradient id="Sfumatura_senza_nome_239" data-name="Sfumatura senza nome 239" x1="0" y1="7.83" x2="15.66" y2="7.83" gradientUnits="userSpaceOnUse">
      <stop offset="0" stop-color="#fdc627"/>
      <stop offset=".17" stop-color="#fbbe24"/>
      <stop offset=".43" stop-color="#f8aa1d"/>
      <stop offset=".74" stop-color="#f28a12"/>
      <stop offset="1" stop-color="#ec6907"/>
    </linearGradient>
  </defs>
  <g id="Livello_1-2" data-name="Livello 1">
    <g>
      <circle class="cls-1" cx="7.83" cy="7.83" r="7.83"/>
      <path class="cls-2" d="M10.95,8.9c-.41-1.36-1.23-2.41-2.43-3.17-.05-.03-.1-.06-.15-.1,0,0-.01-.02-.03-.04.35-.5.78-.97.7-1.66h-.42c-.2.06-.41.1-.6.17-.44.17-.84.07-1.21-.17h-.42c-.18.18-.19.41-.09.62.2.39.44.75.68,1.16-.01,0-.08.06-.15.11-1.04.76-1.77,1.76-2.12,3.01-.38,1.37.19,2.35,1.58,2.7,1.06.27,2.14.29,3.2,0,1.33-.35,1.87-1.31,1.48-2.63ZM7.91,9.99v.39h-.24v-.38c-.22,0-.44-.07-.58-.17l.09-.25c.14.09.33.16.54.16.27,0,.45-.15.45-.37s-.15-.34-.43-.45c-.38-.15-.62-.32-.62-.65s.22-.55.57-.61v-.38h.23v.37c.23,0,.38.07.49.13l-.09.25c-.08-.05-.23-.13-.47-.13-.29,0-.4.17-.4.32,0,.2.14.29.47.43.39.16.58.35.58.69,0,.3-.21.58-.59.64Z"/>
    </g>
  </g>
</svg>